:SAMPLES-PER-SECOND 30
:FULLY-SPECIFIED
:DEGREES
166
root  16.67128886 39.52666756 -8.934577431 -2.664340258 -63.04520035 5.385900497
lfemur  -19.74270058 -2.511880159 -6.294287682
ltibia  -1.491570742e-006 -8.364404493e-007 52.05940247
lfoot  5.521815751e-007 -10.38600254 1.293140531
ltoes  -4.250644065 -19.5611806 -102.515957
rfemur  -8.192942619 13.1607008 5.582947731
rtibia  -8.727266732e-007 2.533748784e-007 49.55130386
rfoot  -2.316020982e-006 -16.47430038 -13.12640095
rtoes  5.373923086 19.29304026 -105.8922705
lowerback  7.639400005 2.792659998 1.463279963
upperback  2.442310095 3.783269882 0.1474950016
thorax  -1.666720033 1.870470047 -1.001610041
rclavicle  0 -9.442270133e-015 7.951389973e-016
rhumerus  9.028169632 21.68330002 -73.97920227
rradius  -7.782816926e-012 0.001642658608 141.4250031
rwrist  0.002739921212 0.003270594636 -14.89460087
rthumb  -92.93752616 -24.25625642 -97.11982154
rhand  -7.920061211e-032 -33.2840004 9.303460121
rfingers  -90 -7.125020027 -90
lclavicle  0 -9.442270133e-015 7.951389973e-016
lhumerus  11.57320118 -4.222640038 65.5565033
lradius  1.032089952e-011 0.005718162749 145.345993
lwrist  1.816137865e-011 1.409039812e-011 3.650130033
lthumb  89.89689403 5.08795885 91.16245106
lhand  -1.496451383e-031 -27.76390076 20.11240005
lfingers  90 7.125020027 -90
lowerneck  -6.13214016 8.78608036 -4.346290112
upperneck  14.01990032 12.0855999 1.602849841
head  4.86082983 5.765510082 1.868170023
167
root  16.65453273 39.40555542 -9.08968918 -3.445669651 -63.07569885 6.032889366
lfemur  -19.46430206 -1.457119703 -7.239352226
ltibia  -1.491570742e-006 -8.364404493e-007 53.32839584
lfoot  5.521815751e-007 -10.94669342 0.5675619245
ltoes  -4.250644065 -19.5611806 -102.515957
rfemur  -7.102137089 13.25310135 5.723977089
rtibia  -8.727266732e-007 2.533748784e-007 48.93959045
rfoot  -2.316020982e-006 -19.30609512 -14.14529896
rtoes  5.373923086 19.29304026 -105.8922705
lowerback  7.782599926 2.64102006 0.8136278987
upperback  2.392819881 3.541529894 0.4131039977
thorax  -1.860280037 1.747380018 -0.3557989895
rclavicle  0 -9.442270133e-015 7.951389973e-016
rhumerus  8.660730362 22.03450012 -73.57849884
rradius  -7.782816926e-012 0.001642658608 141.029007
rwrist  0.002739921212 0.003270594636 -14.59619999
rthumb  -92.93752616 -24.25625642 -97.11982154
rhand  -7.920061211e-032 -33.2840004 9.303460121
rfingers  -90 -7.125020027 -90
lclavicle  0 -9.442270133e-015 7.951389973e-016
lhumerus  10.50420094 -4.679149628 66.14489746
lradius  1.032089952e-011 0.005718162749 144.9349976
lwrist  1.816137865e-011 1.409039812e-011 3.262140036
lthumb  89.89689403 5.08795885 91.16245106
lhand  -1.496451383e-031 -27.76390076 20.11240005
lfingers  90 7.125020027 -90
lowerneck  -5.952330112 8.817959785 -4.61424017
upperneck  14.02799988 12.15129948 1.566139936
head  4.818220139 5.78178978 1.890370011
168
root  16.6175572 39.28222356 -9.240755697 -4.202119827 -63.18909836 6.718900204
lfemur  -19.13479805 -0.2928544879 -8.139742851
ltibia  -1.491570742e-006 -8.364404493e-007 54.3781929
lfoot  5.521815751e-007 -11.88139534 2.209079981
ltoes  -4.250644065 -19.5611806 -102.515957
rfemur  -6.104196548 13.47220039 5.794579029
rtibia  -8.727266732e-007 2.533748784e-007 47.98968887
rfoot  -2.316020982e-006 -21.36969376 -15.3266983
rtoes  5.373923086 19.29304026 -105.8922705
lowerback  7.856510162 2.472949982 0.1075041443
upperback  2.270770073 3.273380041 0.6620900035
thorax  -2.084350109 1.61390996 0.3108670115
rclavicle  0 -9.442270133e-015 7.951389973e-016
rhumerus  8.176019669 22.29820061 -73.40630341
rradius  -7.782816926e-012 0.001642658608 140.6759949
rwrist  0.002739921212 0.003270594636 -14.20129967
rthumb  -92.93752616 -24.25625642 -97.11982154
rhand  -7.920061211e-032 -33.2840004 9.303460121
rfingers  -90 -7.125020027 -90
lclavicle  0 -9.442270133e-015 7.951389973e-016
lhumerus  9.216189384 -5.155400276 66.44879913
lradius  1.032090038e-011 0.005718162749 144.8860016
lwrist  1.816137865e-011 1.409039812e-011 2.10007
lthumb  89.89689403 5.08795885 91.16245106
lhand  -1.496451383e-031 -27.76390076 20.11240005
lfingers  90 7.125020027 -90
lowerneck  -5.744070053 8.927680016 -4.862339973
upperneck  14.15680027 12.31850052 1.526840091
head  4.806350231 5.844550133 1.915930033
169
root  16.57006722 39.17622303 -9.375599989 -4.898240566 -63.35800171 7.397200584
lfemur  -18.81699181 0.939792335 -8.971291542
ltibia  -1.491570742e-006 -8.364404493e-007 55.17178726
lfoot  5.521815751e-007 -12.93469524 4.831390858
ltoes  -4.250644065 -19.5611806 -102.515957
rfemur  -5.234986782 13.74870014 5.764319897
rtibia  -8.727266732e-007 2.533748784e-007 46.84939194
rfoot  -2.316020982e-006 -22.22629547 -16.28829765
rtoes  5.373923086 19.29304026 -105.8922705
lowerback  7.864230156 2.36958003 -0.3108069897
upperback  2.180190086 3.1066401 0.6975049973
thorax  -2.205250025 1.532600045 0.5938850045
rclavicle  0 -9.442270133e-015 7.951389973e-016
rhumerus  7.672170639 22.25079918 -73.52940369
rradius  -7.782816926e-012 0.001642658608 140.2120056
rwrist  0.002739921212 0.003270594636 -13.54380035
rthumb  -92.93752616 -24.25625642 -97.11982154
rhand  -7.920061211e-032 -33.2840004 9.303460121
rfingers  -90 -7.125020027 -90
lclavicle  0 -9.442270133e-015 7.951389973e-016
lhumerus  8.274809837 -5.372610092 66.65100098
lradius  1.032089865e-011 0.005718162749 144.6999969
lwrist  1.816137865e-011 1.409039812e-011 1.585890055
lthumb  89.89689403 5.08795885 91.16245106
lhand  -1.496451383e-031 -27.76390076 20.11240005
lfingers  90 7.125020027 -90
lowerneck  -5.717339993 8.962349892 -4.909639835
upperneck  14.30809975 12.36319923 1.577029705
head  4.840960026 5.862249851 1.94362998
170
root  16.51446725 39.09533343 -9.488733547 -5.74227953 -63.51290131 8.250209808
lfemur  -18.4650898 1.9868505 -9.813022614
ltibia  -1.491570742e-006 -8.364404493e-007 55.72488403
lfoot  5.521815751e-007 -14.05249214 7.529450893
ltoes  -4.250644065 -19.5611806 -102.515957
rfemur  -4.383841991 13.76310062 5.517138004
rtibia  -8.727266732e-007 2.533748784e-007 45.72008133
rfoot  -2.316020982e-006 -22.60489082 -16.38479805
rtoes  5.373923086 19.29304026 -105.8922705
lowerback  7.855529785 2.264800072 -0.6243640184
upperback  2.116430044 2.942070007 0.6055870056
thorax  -2.274760008 1.452469945 0.6893140078
rclavicle  0 -9.442270133e-015 7.951389973e-016
rhumerus  7.183799267 22.32239914 -73.76519775
rradius  -7.782816926e-012 0.001642658608 139.720993
rwrist  0.002739921212 0.003270594636 -13.21210003
rthumb  -92.93752616 -24.25625642 -97.11982154
rhand  -7.920061211e-032 -33.2840004 9.303460121
rfingers  -90 -7.125020027 -90
lclavicle  0 -9.442270133e-015 7.951389973e-016
lhumerus  7.473509789 -5.541570187 66.73320007
lradius  1.032090038e-011 0.005718162749 144.526001
lwrist  1.816137865e-011 1.409039812e-011 1.359369874
lthumb  89.89689403 5.08795885 91.16245106
lhand  -1.496451383e-031 -27.76390076 20.11240005
lfingers  90 7.125020027 -90
lowerneck  -5.647610188 8.990810394 -4.929450035
upperneck  14.30350018 12.39389896 1.60897994
head  4.823540211 5.87842989 1.953259945
171
root  16.46222242 39.02488769 -9.59515534 -6.541769981 -63.60660172 9.10229969
lfemur  -18.23559761 2.798979521 -10.52449703
ltibia  -1.491570742e-006 -8.364404493e-007 56.11349869
lfoot  5.521815751e-007 -15.28160286 9.007439613
ltoes  -4.250644065 -19.5611806 -102.515957
rfemur  -3.682811022 13.58259869 5.186711311
rtibia  -8.727266732e-007 2.533748784e-007 44.75310516
rfoot  -2.316020982e-006 -23.58950424 -15.93570042
rtoes  5.373923086 19.29304026 -105.8922705
lowerback  7.886370182 2.110979795 -0.98398
upperback  2.016410112 2.709209919 0.5445330143
thorax  -2.40444994 1.339339972 0.8470349908
rclavicle  0 -9.442270133e-015 7.951389973e-016
rhumerus  6.588550568 22.51189995 -74.10050201
rradius  -7.782816926e-012 0.001642658608 139.447998
rwrist  0.002739921212 0.003270594636 -13.28079987
rthumb  -92.93752616 -24.25625642 -97.11982154
rhand  -7.920061211e-032 -33.2840004 9.303460121
rfingers  -90 -7.125020027 -90
lclavicle  0 -9.442270133e-015 7.951389973e-016
lhumerus  6.555930614 -5.82872963 66.75189972
lradius  1.032090212e-011 0.005718162749 144.4759979
lwrist  1.816137865e-011 1.409039812e-011 1.127470016
lthumb  89.89689403 5.08795885 91.16245106
lhand  -1.496451383e-031 -27.76390076 20.11240005
lfingers  90 7.125020027 -90
lowerneck  -5.344299793 9.073719978 -4.928989887
upperneck  14.05889988 12.50590038 1.422409892
head  4.707300186 5.929120064 1.877380013
172
root  16.43435561 38.95199993 -9.706333491 -6.69178009 -63.81090164 9.222840309
lfemur  -18.1400032 3.618219852 -10.69859982
ltibia  -1.491570742e-006 -8.364404493e-007 56.42420197
lfoot  5.521815751e-007 -16.32369804 9.470549583
ltoes  -4.250644065 -19.5611806 -102.515957
rfemur  -3.241342545 13.57190037 5.21323061
rtibia  -8.727266732e-007 2.533748784e-007 44.00380325
rfoot  -2.316020982e-006 -25.00300026 -15.52639961
rtoes  5.373923086 19.29304026 -105.8922705
lowerback  8.099229813 1.948150039 -1.05163002
upperback  1.905410051 2.487580061 0.5936059952
thorax  -2.6370399 1.231070042 0.9480720162
rclavicle  0 -9.442270133e-015 7.951389973e-016
rhumerus  6.056799889 22.62360001 -74.55879974
rradius  -7.782816926e-012 0.001642658608 139.1840057
rwrist  0.002739921212 0.003270594636 -12.87660027
rthumb  -92.93752616 -24.25625642 -97.11982154
rhand  -7.920061211e-032 -33.2840004 9.303460121
rfingers  -90 -7.125020027 -90
lclavicle  0 -9.442270133e-015 7.951389973e-016
lhumerus  5.57708931 -6.031340122 66.75330353
lradius  1.032089778e-011 0.005718162749 144.5570068
lwrist  1.816137865e-011 1.409039812e-011 1.123610139
lthumb  89.89689403 5.08795885 91.16245106
lhand  -1.496451383e-031 -27.76390076 20.11240005
lfingers  90 7.125020027 -90
lowerneck  -5.09059 9.190360069 -4.904630184
upperneck  13.78079987 12.67220116 1.164770246
head  4.594369888 6.004630089 1.780830026
